<?xml version='1.0' encoding='utf-8'?><svg xmlns="http://www.w3.org/2000/svg" width="200mm" height="200mm" viewBox="50 50 100 100" version="1.1"><g transform="matrix(0.75855359,0,0,0.75855359,24.132763,24.358191)"><path style="fill:#ffffff;stroke:#000000;stroke-width:13.065;stroke-linecap:butt;stroke-linejoin:round;stroke-miterlimit:1;stroke-dasharray:none;paint-order:normal" d="M 164.7088,124.99971 C 160.2915,150.80604 82.525789,179.55201 62.385498,162.82335 42.245206,146.09469 56.233323,64.374626 80.790914,55.296953 105.34851,46.21928 169.1261,99.193374 164.7088,124.99971 Z" transform="translate(-8.3892429,-11.74494)" /></g><g transform="matrix(0.75855359,0,0,0.75855359,24.132763,24.358191)"><ellipse style="fill:#000000;stroke:#000000;stroke-width:15.8197;stroke-linecap:butt;stroke-linejoin:round;stroke-miterlimit:1;stroke-dasharray:none;stroke-opacity:0;paint-order:normal" ry="26.167324" rx="25.747864" cy="126.53774" cx="92.561302" /></g><g transform="matrix(0.75855359,0,0,0.75855359,24.132763,24.358191)"><path style="fill:#000000;stroke:#000000;stroke-width:13.065;stroke-linecap:butt;stroke-linejoin:round;stroke-miterlimit:1;stroke-dasharray:none;stroke-opacity:0;paint-order:normal" d="m 75.223547,92.421494 a 7.4104977,7.9697804 0 0 1 -5.933492,7.809876 7.4104977,7.9697804 0 0 1 -8.298732,-4.696663 7.4104977,7.9697804 0 0 1 2.625408,-9.682082 7.4104977,7.9697804 0 0 1 9.345286,0.837138 l -5.148968,5.731731 z" /><path style="fill:#000000;stroke:#000000;stroke-width:13.065;stroke-linecap:butt;stroke-linejoin:round;stroke-miterlimit:1;stroke-dasharray:none;stroke-opacity:0;paint-order:normal" d="m 102.6284,82.634041 a 7.4104977,7.9697804 0 0 1 -5.933491,7.809874 7.4104977,7.9697804 0 0 1 -8.298732,-4.696661 7.4104977,7.9697804 0 0 1 2.625408,-9.682082 7.4104977,7.9697804 0 0 1 9.345285,0.837139 l -5.148967,5.73173 z" /></g></svg>