<?xml version='1.0' encoding='utf-8'?><svg xmlns="http://www.w3.org/2000/svg" width="1500" height="500" viewBox="0 0 1500 500" version="1.1"><g><path style="fill:#ffffff;fill-opacity:0;stroke:#000000;stroke-width:30;stroke-linejoin:round;stroke-miterlimit:1;stroke-dasharray:none" d="M 1030.7813,245 1170,155 c 0,0 30,0 0,0 -30,0 -80,270 40,270 120,0 150,-220 150,-220 l 80,110" /><path style="fill:#ffffff;fill-opacity:0;stroke:#000000;stroke-width:30;stroke-linejoin:round;stroke-miterlimit:1;stroke-dasharray:none" d="m 1405.4198,164.37569 50,50" /><path style="fill:#ffffff;fill-opacity:0;stroke:#000000;stroke-width:30;stroke-linejoin:round;stroke-miterlimit:1;stroke-dasharray:none" d="m 1435.2636,134.37569 50.1562,50" /></g><g><g transform="rotate(25.735431,816.85178,308.31315)" style="display:inline"><path style="fill:#0000;fill-opacity:0;stroke:#000000;stroke-width:13.065;stroke-linecap:butt;stroke-linejoin:round;stroke-miterlimit:1;stroke-dasharray:none;paint-order:normal" d="M 164.7088,124.99971 C 160.2915,150.80604 82.525789,179.55201 62.385498,162.82335 42.245206,146.09469 56.233323,64.374626 80.790914,55.296953 105.34851,46.21928 169.1261,99.193374 164.7088,124.99971 Z" transform="matrix(1.673764,0,0,1.673764,705.32093,144.25971)" /><g transform="rotate(-25.735431,816.85178,308.31315)" style="display:inline"><ellipse style="display:inline;fill:#000000;stroke:#000000;stroke-width:26.4783;stroke-linecap:butt;stroke-linejoin:round;stroke-miterlimit:1;stroke-dasharray:none;stroke-opacity:0;paint-order:normal" ry="43.797924" rx="43.095844" cy="375.71228" cx="874.28839" transform="rotate(25.735431,816.85178,308.31315)" /><path style="display:inline;fill:#000000;stroke:#000000;stroke-width:21.8676;stroke-linecap:butt;stroke-linejoin:round;stroke-miterlimit:1;stroke-dasharray:none;stroke-opacity:0;paint-order:normal" d="m 845.2689,318.60977 a 12.403423,13.339532 0 0 1 -9.93126,13.07189 12.403423,13.339532 0 0 1 -13.89012,-7.8611 12.403423,13.339532 0 0 1 4.39431,-16.20552 12.403423,13.339532 0 0 1 15.6418,1.40117 l -8.61815,9.59356 z" transform="rotate(25.735431,816.85178,308.31315)" /><path style="display:inline;fill:#000000;stroke:#000000;stroke-width:21.8676;stroke-linecap:butt;stroke-linejoin:round;stroke-miterlimit:1;stroke-dasharray:none;stroke-opacity:0;paint-order:normal" d="m 891.13823,302.22787 a 12.403423,13.339532 0 0 1 -9.93127,13.07189 12.403423,13.339532 0 0 1 -13.89012,-7.8611 12.403423,13.339532 0 0 1 4.39432,-16.20552 12.403423,13.339532 0 0 1 15.6418,1.40117 l -8.61816,9.59356 z" transform="rotate(25.735431,816.85178,308.31315)" /></g></g><path style="fill:#ffffff;fill-opacity:0;stroke:#000000;stroke-width:30;stroke-linejoin:round;stroke-miterlimit:1;stroke-dasharray:none" d="m 690,70 -110,100 70,20" /><path style="fill:#ffffff;fill-opacity:0;stroke:#000000;stroke-width:30;stroke-linejoin:round;stroke-miterlimit:1;stroke-dasharray:none" d="M 710,150 550,270 720,240" /><path style="fill:#ffffff;fill-opacity:0;stroke:#000000;stroke-width:30;stroke-linejoin:round;stroke-miterlimit:1;stroke-dasharray:none" d="m 700,210 40,70" /><path style="fill:#ffffff;fill-opacity:0;stroke:#000000;stroke-width:30;stroke-linejoin:round;stroke-miterlimit:1;stroke-dasharray:none" d="M 650,260 V 440 L 600,390" /><path style="fill:#ffffff;fill-opacity:0;stroke:#000000;stroke-width:30;stroke-linejoin:round;stroke-miterlimit:1;stroke-dasharray:none" d="M 589.3934,321.57124 540,380" /><path style="fill:#ffffff;fill-opacity:0;stroke:#000000;stroke-width:30;stroke-linejoin:round;stroke-miterlimit:1;stroke-dasharray:none" d="m 702,320 34.00799,37.49894" /><path style="fill:#ffffff;fill-opacity:0;stroke:#000000;stroke-width:30;stroke-linejoin:round;stroke-miterlimit:1;stroke-dasharray:none" d="M 740,150 H 970" /><path style="fill:#ffffff;fill-opacity:0;stroke:#000000;stroke-width:30;stroke-linejoin:round;stroke-miterlimit:1;stroke-dasharray:none" d="M 851.73768,58.900899 850,226" /><path style="fill:#ffffff;fill-opacity:0;stroke:#000000;stroke-width:30;stroke-linejoin:round;stroke-miterlimit:1;stroke-dasharray:none" d="M 770,220 H 940" /></g><g><path style="fill:#ffffff;fill-opacity:0;stroke:#000000;stroke-width:30;stroke-linejoin:round;stroke-miterlimit:1;stroke-dasharray:none" d="M 100,180 H 270" /><path style="fill:#ffffff;fill-opacity:0;stroke:#000000;stroke-width:30;stroke-linejoin:round;stroke-miterlimit:1;stroke-dasharray:none" d="m 180,90 c 0,0 0,350 -20,350 -20,0 -70,-50 -70,-90 0,-40 220,-50 240,-50 20,0 80,20 80,60 0,40 -50,80 -90,80" /><path style="fill:#ffffff;fill-opacity:0;stroke:#000000;stroke-width:30;stroke-linejoin:round;stroke-miterlimit:1;stroke-dasharray:none" d="m 360,160 60,60" /></g></svg>