<?xml version="1.0" encoding="UTF-8" standalone="no"?><svg width="125.28106mm" height="126.71691mm" viewBox="0 0 125.28106 126.71691" version="1.1" id="svg1" xmlns="http://www.w3.org/2000/svg" xmlns:svg="http://www.w3.org/2000/svg"><defs id="defs1" /><g id="layer1" transform="translate(-42.438698,-35.525936)"><path style="opacity:1;fill:#ffffff;fill-opacity:1;stroke:#000000;stroke-width:13.065;stroke-linecap:butt;stroke-linejoin:round;stroke-miterlimit:1;stroke-dasharray:none;stroke-opacity:1;paint-order:normal" id="path2" d="M 164.7088,124.99971 C 160.2915,150.80604 82.525789,179.55201 62.385498,162.82335 42.245206,146.09469 56.233323,64.374626 80.790914,55.296953 105.34851,46.21928 169.1261,99.193374 164.7088,124.99971 Z" transform="translate(-3.7711703,-12.115358)" /></g><g id="layer2" transform="translate(-42.438698,-35.525936)"><ellipse style="opacity:1;fill:#000000;fill-opacity:1;stroke:#000000;stroke-width:15.8197;stroke-linecap:butt;stroke-linejoin:round;stroke-miterlimit:1;stroke-dasharray:none;stroke-opacity:0;paint-order:normal" id="path3" ry="26.167324" rx="25.747864" cy="126.16733" cx="115" /></g><g id="layer3" transform="translate(-42.438698,-35.525936)"><path style="opacity:1;fill:#000000;fill-opacity:1;stroke:#000000;stroke-width:13.065;stroke-linecap:butt;stroke-linejoin:round;stroke-miterlimit:1;stroke-dasharray:none;stroke-opacity:0;paint-order:normal" id="path4" d="m 97.662245,92.051079 a 7.4104977,7.9697804 0 0 1 -5.933492,7.809874 7.4104977,7.9697804 0 0 1 -8.298732,-4.696661 7.4104977,7.9697804 0 0 1 2.625408,-9.682082 7.4104977,7.9697804 0 0 1 9.345286,0.837138 l -5.148968,5.731731 z" /><path style="opacity:1;fill:#000000;fill-opacity:1;stroke:#000000;stroke-width:13.065;stroke-linecap:butt;stroke-linejoin:round;stroke-miterlimit:1;stroke-dasharray:none;stroke-opacity:0;paint-order:normal" id="path5" d="m 125.0671,82.263626 a 7.4104977,7.9697804 0 0 1 -5.93349,7.809875 7.4104977,7.9697804 0 0 1 -8.29873,-4.696662 7.4104977,7.9697804 0 0 1 2.6254,-9.682082 7.4104977,7.9697804 0 0 1 9.34529,0.837139 l -5.14897,5.73173 z" /></g></svg>