<?xml version="1.0" encoding="UTF-8" standalone="no"?><svg width="409.25031" height="406.44208" viewBox="0 0 409.25031 406.44208" version="1.1" xmlns="http://www.w3.org/2000/svg"><defs/><g transform="translate(-4.0031391,-49)"><path style="opacity:1;fill:#000000;fill-opacity:1;stroke:#8900b4;stroke-width:30;stroke-linejoin:round;stroke-miterlimit:1;stroke-opacity:0" d="m 161.25658,64 c -48,0 -63.999998,16 -63.999998,64 0,48 15.999998,65.6326 63.999998,64.8163 48,-0.8163 64,-16.8163 64,-64.8163 0,-48 -16,-64 -64,-64 z"/><path style="opacity:1;fill:#ffffff;fill-opacity:1;stroke:#8900b4;stroke-width:48.8276;stroke-linejoin:round;stroke-miterlimit:1;stroke-opacity:0" d="m -119.04174,128 a 13.107412,12.934585 0 0 1 -10.49494,12.67506 13.107412,12.934585 0 0 1 -14.67849,-7.62246 13.107412,12.934585 0 0 1 4.64372,-15.71357 13.107412,12.934585 0 0 1 16.5296,1.35864 L -132.14915,128 Z" transform="scale(-1,1)" /><path style="opacity:1;fill:#ffffff;fill-opacity:0;stroke:#000000;stroke-width:60;stroke-linejoin:round;stroke-miterlimit:1;stroke-dasharray:none;stroke-opacity:1" d="m 177.25658,160 96,176"/><path style="opacity:1;fill:#ffffff;fill-opacity:0;stroke:#000000;stroke-width:30;stroke-linejoin:round;stroke-miterlimit:1;stroke-dasharray:none;stroke-opacity:1" d="m 337.25658,448 -64,-112" /><path style="opacity:1;fill:#ffffff;fill-opacity:0;stroke:#000000;stroke-width:30;stroke-linejoin:round;stroke-miterlimit:1;stroke-dasharray:none;stroke-opacity:1" d="m 241.25658,336 -80,48.1379 32,63.8621"/><path style="opacity:1;fill:#ffffff;fill-opacity:0;stroke:#000000;stroke-width:30;stroke-linejoin:round;stroke-miterlimit:1;stroke-dasharray:none;stroke-opacity:1" d="m 240.25658,226.44705 97,-50.44705 64.30565,80"/><path style="opacity:1;fill:#ffffff;fill-opacity:0;stroke:#000000;stroke-width:30;stroke-linejoin:round;stroke-miterlimit:1;stroke-dasharray:none;stroke-opacity:1" d="M 193.25658,240 97.256582,288 14.434932,207.843" /></g></svg>