<svg viewBox="0 0 200 200" xmlns="http://www.w3.org/2000/svg"><g transform="matrix(1.4862423,0,0,1.4862423,-44.736398,-43.416725)"><path style="opacity:1;fill:#ffffff;fill-opacity:1;stroke:#000000;stroke-width:13.065;stroke-linecap:butt;stroke-linejoin:round;stroke-miterlimit:1;stroke-dasharray:none;stroke-opacity:1;paint-order:normal" d="M 164.7088,124.99971 C 160.2915,150.80604 82.525789,179.55201 62.385498,162.82335 42.245206,146.09469 56.233323,64.374626 80.790914,55.296953 105.34851,46.21928 169.1261,99.193374 164.7088,124.99971 Z" transform="matrix(1.0305283,0,0,1.0305283,-14.42182,-17.75174)" /></g><g transform="matrix(1.4862423,0,0,1.4862423,-44.736398,-43.416725)"><ellipse style="opacity:1;fill:#000000;fill-opacity:1;stroke:#000000;stroke-width:15.8197;stroke-linecap:butt;stroke-linejoin:round;stroke-miterlimit:1;stroke-dasharray:none;stroke-opacity:0;paint-order:normal" ry="26.167324" rx="25.747864" cy="126.53774" cx="92.561302" /></g><g transform="matrix(1.4862423,0,0,1.4862423,-44.736398,-43.416725)"><path style="opacity:1;fill:#000000;fill-opacity:1;stroke:#000000;stroke-width:13.065;stroke-linecap:butt;stroke-linejoin:round;stroke-miterlimit:1;stroke-dasharray:none;stroke-opacity:0;paint-order:normal" d="m 75.223547,92.421494 a 7.4104977,7.9697804 0 0 1 -5.933492,7.809876 7.4104977,7.9697804 0 0 1 -8.298732,-4.696663 7.4104977,7.9697804 0 0 1 2.625408,-9.682082 7.4104977,7.9697804 0 0 1 9.345286,0.837138 l -5.148968,5.731731 z" /><path style="opacity:1;fill:#000000;fill-opacity:1;stroke:#000000;stroke-width:13.065;stroke-linecap:butt;stroke-linejoin:round;stroke-miterlimit:1;stroke-dasharray:none;stroke-opacity:0;paint-order:normal" d="m 102.6284,82.634041 a 7.4104977,7.9697804 0 0 1 -5.933491,7.809874 7.4104977,7.9697804 0 0 1 -8.298732,-4.696661 7.4104977,7.9697804 0 0 1 2.625408,-9.682082 7.4104977,7.9697804 0 0 1 9.345285,0.837139 l -5.148967,5.73173 z" /></g></svg>