<?xml version="1.0" encoding="UTF-8" standalone="no"?><svg width="500" height="500" viewBox="0 0 500 500" version="1.1" id="svg1" xmlns="http://www.w3.org/2000/svg" xmlns:svg="http://www.w3.org/2000/svg"><defs id="defs1" /><g id="layer1"><g id="g2"><path id="path1" style="fill:#007000;fill-opacity:1;stroke:#000000;stroke-width:31.7054;stroke-linejoin:round;stroke-miterlimit:1" d="m 245.66929,42.890159 c -75.59047,0 -132.28346,51.443867 -132.28346,151.181101 0,99.73722 132.28346,254.37716 132.28346,254.37716 0,0 132.28348,-154.63994 132.28348,-254.37716 0,-99.737224 -56.693,-151.181101 -132.28348,-151.181101 z" /></g><path style="fill:#007000;fill-opacity:0;stroke:#ffffff;stroke-width:31.1129;stroke-linejoin:round;stroke-miterlimit:1" d="m 304.44356,154.33628 c 0,-38.7706 -39.62903,-38.7706 -59.44355,-38.7706 -19.8145,0 -59.44357,0 -59.44357,38.7706 v 77.5412 c 0,0 0,-38.7706 0,0 0,38.77062 59.1898,37.55111 59.1898,37.55111 h 5.94435 c 19.81452,0 47.4398,1.1107 49.53629,-18.16577 l 2.13533,-43.3888 h -37.79527 37.79527 l -0.15388,92.12681" id="path2" /></g></svg>